<svg version="1.1" id="Layer_1" xmlns="http://www.w3.org/2000/svg" xmlns:xlink="http://www.w3.org/1999/xlink" x="0px" y="0px"
	 width="100%" viewBox="0 0 768 769" enable-background="new 0 0 768 769" xml:space="preserve">
<path fill="#0866FF" opacity="1.000000" stroke="none" 
	d="
M345.000000,0.999999 
	C371.354218,1.000000 397.708466,1.000000 424.328247,1.405985 
	C430.624207,2.870780 436.699677,3.722786 442.676575,5.026676 
	C461.555664,9.145244 480.611084,12.666715 499.202484,17.841291 
	C524.839783,24.976980 548.913086,36.154648 572.241516,48.986038 
	C597.418640,62.834278 620.748352,79.352463 641.884399,98.657967 
	C663.712280,118.595497 683.620361,140.407318 700.514587,164.871292 
	C717.917053,190.071091 732.340271,216.828415 743.499023,245.286514 
	C751.693054,266.183838 758.205261,287.655396 762.004272,309.840607 
	C763.876892,320.776337 765.316284,331.785950 767.075684,342.742218 
	C767.209595,343.576324 768.335266,344.251160 769.000000,345.000000 
	C769.000000,371.020905 769.000000,397.041779 768.592896,423.333496 
	C767.792725,424.448975 767.163757,425.261932 767.045227,426.143555 
	C766.304077,431.653625 765.695435,437.181366 765.008850,442.699036 
	C762.591248,462.128906 757.837830,481.021301 752.104126,499.710602 
	C743.561523,527.555176 731.633179,553.848877 717.064758,579.053223 
	C703.910767,601.810303 688.459717,622.883179 670.912476,642.328491 
	C661.034668,653.274902 650.189392,663.435913 639.101196,673.178223 
	C627.678711,683.214233 615.926880,693.026306 603.445679,701.675964 
	C574.817566,721.515686 544.014648,737.485596 510.883484,748.350037 
	C493.940948,753.905823 476.428497,757.788269 459.060455,761.955261 
	C450.070648,764.112122 440.833984,765.239929 431.730774,766.375366 
	C431.752747,678.179321 431.752747,590.440674 431.752747,502.207581 
	C466.843781,502.207581 501.101959,502.207581 535.533997,502.207581 
	C542.734802,462.989716 549.853149,424.220459 557.078125,384.870819 
	C515.171204,384.870819 473.595093,384.870819 432.026123,384.870819 
	C432.026123,365.845856 431.890594,347.357727 432.116333,328.874023 
	C432.176727,323.926788 433.154816,318.960022 434.028442,314.058716 
	C438.037781,291.564819 448.706421,273.983917 470.817535,265.096191 
	C482.188171,260.525665 494.176178,258.334625 506.306183,258.150970 
	C523.450378,257.891418 540.609253,258.604980 557.762024,258.894470 
	C559.504395,258.923889 561.247681,258.898407 562.750854,258.898407 
	C562.750854,222.954529 562.750854,187.691803 562.750854,152.373688 
	C540.932678,147.551575 519.180054,145.151779 497.257111,143.777023 
	C463.610962,141.667114 430.443115,144.100388 398.128540,154.071350 
	C364.342896,164.496201 337.072174,183.730927 318.773102,214.603928 
	C301.747925,243.327759 294.961853,275.002808 293.200745,307.773407 
	C291.905457,331.875702 292.359314,356.072052 292.037750,380.226501 
	C292.018463,381.676361 292.035248,383.126678 292.035248,385.056824 
	C265.488190,385.056824 239.421982,385.056824 213.403778,385.056824 
	C213.403778,424.410156 213.403778,463.274414 213.403778,502.531250 
	C239.751633,502.531250 265.697693,502.531250 292.049316,502.531250 
	C292.049316,587.895447 292.049316,672.864502 291.647034,757.902954 
	C283.302551,755.690369 275.319458,753.540649 267.425476,751.102539 
	C239.776352,742.563049 213.647385,730.549377 188.743073,715.906067 
	C166.548859,702.856384 145.755661,687.728394 126.938873,670.198303 
	C110.247162,654.647949 93.691551,638.741211 80.590858,619.908325 
	C68.603378,602.675781 56.611702,585.329041 46.270287,567.097595 
	C32.921074,543.563416 22.686375,518.479248 15.721154,492.237762 
	C12.431529,479.844116 9.580168,467.314178 7.087709,454.735504 
	C5.249767,445.459930 4.348111,436.000336 2.904737,426.641907 
	C2.807539,426.011688 1.659366,425.543518 0.999999,425.000000 
	C1.000000,398.645782 1.000000,372.291534 1.405564,345.672058 
	C2.870135,339.370697 4.155694,333.364044 4.946329,327.292969 
	C7.474891,307.876801 12.158760,288.975891 17.893305,270.287262 
	C26.436047,242.446793 38.396606,216.175247 52.922401,190.950424 
	C66.040436,168.170273 81.391724,147.007019 99.077446,127.712540 
	C114.833466,110.523315 131.251190,93.739975 150.437271,80.280685 
	C167.488327,68.319115 184.766693,56.504017 202.876053,46.272743 
	C226.418945,32.971699 251.487350,22.754961 277.702484,15.740276 
	C288.516174,12.846731 299.423828,10.210397 310.409698,8.081182 
	C321.290131,5.972397 332.327667,4.678685 343.277313,2.910202 
	C343.937164,2.803630 344.429657,1.660701 345.000000,0.999999 
z"/>
<path fill="#FFFFFF" opacity="1.000000" stroke="none" 
	d="
M292.049316,757.833618 
	C292.049316,672.864502 292.049316,587.895447 292.049316,502.531250 
	C265.697693,502.531250 239.751633,502.531250 213.403778,502.531250 
	C213.403778,463.274414 213.403778,424.410156 213.403778,385.056824 
	C239.421982,385.056824 265.488190,385.056824 292.035248,385.056824 
	C292.035248,383.126678 292.018463,381.676361 292.037750,380.226501 
	C292.359314,356.072052 291.905457,331.875702 293.200745,307.773407 
	C294.961853,275.002808 301.747925,243.327759 318.773102,214.603928 
	C337.072174,183.730927 364.342896,164.496201 398.128540,154.071350 
	C430.443115,144.100388 463.610962,141.667114 497.257111,143.777023 
	C519.180054,145.151779 540.932678,147.551575 562.750854,152.373688 
	C562.750854,187.691803 562.750854,222.954529 562.750854,258.898407 
	C561.247681,258.898407 559.504395,258.923889 557.762024,258.894470 
	C540.609253,258.604980 523.450378,257.891418 506.306183,258.150970 
	C494.176178,258.334625 482.188171,260.525665 470.817535,265.096191 
	C448.706421,273.983917 438.037781,291.564819 434.028442,314.058716 
	C433.154816,318.960022 432.176727,323.926788 432.116333,328.874023 
	C431.890594,347.357727 432.026123,365.845856 432.026123,384.870819 
	C473.595093,384.870819 515.171204,384.870819 557.078125,384.870819 
	C549.853149,424.220459 542.734802,462.989716 535.533997,502.207581 
	C501.101959,502.207581 466.843781,502.207581 431.752747,502.207581 
	C431.752747,590.440674 431.752747,678.179321 431.304413,766.437012 
	C425.203125,767.304993 419.544586,767.590393 413.904419,768.085327 
	C413.218903,768.145508 412.632385,769.334290 412.000000,770.000000 
	C394.312439,770.000000 376.624878,770.000000 358.771667,769.620605 
	C357.763123,768.828369 356.953064,768.151917 356.072449,768.042358 
	C342.218719,766.318604 328.315857,764.938354 314.511108,762.893005 
	C306.940155,761.771301 299.531281,759.555847 292.049316,757.833618 
z"/>
<path fill="#000000" opacity="1.000000" stroke="none" 
	d="
M291.647034,757.902954 
	C299.531281,759.555847 306.940155,761.771301 314.511108,762.893005 
	C328.315857,764.938354 342.218719,766.318604 356.072449,768.042358 
	C356.953064,768.151917 357.763123,768.828369 358.302979,769.620605 
	C239.074173,770.000000 120.148338,770.000000 1.000000,770.000000 
	C1.000000,655.312561 1.000000,540.624939 0.999999,425.468658 
	C1.659366,425.543518 2.807539,426.011688 2.904737,426.641907 
	C4.348111,436.000336 5.249767,445.459930 7.087709,454.735504 
	C9.580168,467.314178 12.431529,479.844116 15.721154,492.237762 
	C22.686375,518.479248 32.921074,543.563416 46.270287,567.097595 
	C56.611702,585.329041 68.603378,602.675781 80.590858,619.908325 
	C93.691551,638.741211 110.247162,654.647949 126.938873,670.198303 
	C145.755661,687.728394 166.548859,702.856384 188.743073,715.906067 
	C213.647385,730.549377 239.776352,742.563049 267.425476,751.102539 
	C275.319458,753.540649 283.302551,755.690369 291.647034,757.902954 
z"/>
<path fill="#000000" opacity="1.000000" stroke="none" 
	d="
M412.468628,770.000000 
	C412.632385,769.334290 413.218903,768.145508 413.904419,768.085327 
	C419.544586,767.590393 425.203125,767.304993 431.282471,766.894287 
	C440.833984,765.239929 450.070648,764.112122 459.060455,761.955261 
	C476.428497,757.788269 493.940948,753.905823 510.883484,748.350037 
	C544.014648,737.485596 574.817566,721.515686 603.445679,701.675964 
	C615.926880,693.026306 627.678711,683.214233 639.101196,673.178223 
	C650.189392,663.435913 661.034668,653.274902 670.912476,642.328491 
	C688.459717,622.883179 703.910767,601.810303 717.064758,579.053223 
	C731.633179,553.848877 743.561523,527.555176 752.104126,499.710602 
	C757.837830,481.021301 762.591248,462.128906 765.008850,442.699036 
	C765.695435,437.181366 766.304077,431.653625 767.045227,426.143555 
	C767.163757,425.261932 767.792725,424.448975 768.592896,423.802124 
	C769.000000,539.261536 769.000000,654.523071 769.000000,770.000000 
	C650.312500,770.000000 531.624939,770.000000 412.468628,770.000000 
z"/>
<path fill="#000000" opacity="1.000000" stroke="none" 
	d="
M344.531342,0.999999 
	C344.429657,1.660701 343.937164,2.803630 343.277313,2.910202 
	C332.327667,4.678685 321.290131,5.972397 310.409698,8.081182 
	C299.423828,10.210397 288.516174,12.846731 277.702484,15.740276 
	C251.487350,22.754961 226.418945,32.971699 202.876053,46.272743 
	C184.766693,56.504017 167.488327,68.319115 150.437271,80.280685 
	C131.251190,93.739975 114.833466,110.523315 99.077446,127.712540 
	C81.391724,147.007019 66.040436,168.170273 52.922401,190.950424 
	C38.396606,216.175247 26.436047,242.446793 17.893305,270.287262 
	C12.158760,288.975891 7.474891,307.876801 4.946329,327.292969 
	C4.155694,333.364044 2.870135,339.370697 1.405564,345.203430 
	C1.000000,230.406265 1.000000,115.812515 1.000000,1.000000 
	C115.354134,1.000000 229.708405,1.000000 344.531342,0.999999 
z"/>
<path fill="#000000" opacity="1.000000" stroke="none" 
	d="
M769.000000,344.531372 
	C768.335266,344.251160 767.209595,343.576324 767.075684,342.742218 
	C765.316284,331.785950 763.876892,320.776337 762.004272,309.840607 
	C758.205261,287.655396 751.693054,266.183838 743.499023,245.286514 
	C732.340271,216.828415 717.917053,190.071091 700.514587,164.871292 
	C683.620361,140.407318 663.712280,118.595497 641.884399,98.657967 
	C620.748352,79.352463 597.418640,62.834278 572.241516,48.986038 
	C548.913086,36.154648 524.839783,24.976980 499.202484,17.841291 
	C480.611084,12.666715 461.555664,9.145244 442.676575,5.026676 
	C436.699677,3.722786 430.624207,2.870780 424.796936,1.405985 
	C539.593750,1.000000 654.187439,1.000000 769.000000,1.000000 
	C769.000000,115.354134 769.000000,229.708405 769.000000,344.531372 
z"/>
</svg>