<?xml version="1.0" standalone="no"?>
<!DOCTYPE svg PUBLIC "-//W3C//DTD SVG 20010904//EN"
 "http://www.w3.org/TR/2001/REC-SVG-20010904/DTD/svg10.dtd">
<svg version="1.0" xmlns="http://www.w3.org/2000/svg"
 width="768.000000pt" height="769.000000pt" viewBox="0 0 768.000000 769.000000"
 preserveAspectRatio="xMidYMid meet">
<metadata>
Created by potrace 1.16, written by Peter Selinger 2001-2019
</metadata>
<g transform="translate(0.000000,769.000000) scale(0.100000,-0.100000)"
fill="#000000" stroke="none">
<path d="M0 3845 l0 -3845 3840 0 3840 0 0 3845 0 3845 -3840 0 -3840 0 0
-3845z m5067 2414 c157 -13 381 -43 486 -65 l77 -17 0 -532 0 -531 -332 0
c-308 1 -341 -1 -433 -21 -289 -64 -435 -192 -509 -445 -36 -124 -46 -244 -46
-538 l0 -260 625 0 c457 0 625 -3 625 -11 0 -6 -47 -269 -105 -583 -58 -315
-105 -575 -105 -579 0 -4 -234 -7 -520 -7 l-520 0 0 -1319 0 -1319 -87 -9
c-49 -4 -230 -8 -403 -8 -348 0 -463 11 -750 69 l-155 31 -3 1278 -2 1277
-395 0 -395 0 0 590 0 590 394 0 394 0 5 423 c3 320 9 450 21 537 132 907 603
1354 1526 1449 124 12 459 13 607 0z"/>
</g>
</svg>
