<?xml version="1.0" standalone="no"?>
<!DOCTYPE svg PUBLIC "-//W3C//DTD SVG 20010904//EN"
 "http://www.w3.org/TR/2001/REC-SVG-20010904/DTD/svg10.dtd">
<svg version="1.0" xmlns="http://www.w3.org/2000/svg"
 width="159.000000pt" height="148.000000pt" viewBox="0 0 159.000000 148.000000"
 preserveAspectRatio="xMidYMid meet">
<metadata>
Created by potrace 1.16, written by Peter Selinger 2001-2019
</metadata>
<g transform="translate(0.000000,148.000000) scale(0.100000,-0.100000)"
fill="#000000" stroke="none">
<path d="M147 1450 c-21 -16 -33 -31 -27 -35 13 -8 32 3 25 15 -3 5 3 11 14
15 20 6 50 35 35 34 -5 0 -26 -13 -47 -29z"/>
<path d="M220 1464 c11 -12 10 -18 -3 -31 -9 -9 -20 -14 -24 -10 -3 4 2 14 13
23 11 9 13 13 4 10 -8 -3 -23 -9 -32 -12 -21 -7 -24 -24 -5 -24 8 0 8 -3 -2
-9 -8 -5 -26 -8 -40 -6 -37 4 -63 -12 -56 -34 3 -11 -2 -24 -12 -32 -16 -13
-17 -12 -4 4 8 9 11 20 8 24 -4 3 -16 -15 -28 -41 -15 -34 -23 -82 -29 -164
-9 -129 -4 -447 9 -502 7 -35 7 -35 20 -11 10 18 10 25 1 31 -9 5 -9 13 -3 25
9 16 11 16 18 -1 7 -18 8 -18 16 1 7 15 8 12 5 -15 -3 -19 -2 -29 1 -22 2 6
16 12 30 12 15 0 24 3 20 6 -3 3 3 15 14 27 10 11 19 27 19 34 0 7 5 13 10 13
6 0 10 -7 10 -16 0 -8 5 -12 10 -9 7 5 10 -36 9 -124 -1 -72 0 -134 3 -137 4
-3 7 114 7 260 2 256 7 328 30 389 14 36 14 40 -1 31 -8 -4 -10 -3 -5 2 5 5
12 9 15 9 11 0 96 95 86 95 -5 0 0 7 10 15 14 11 16 15 5 15 -10 1 -9 4 4 11
14 8 22 8 30 -1 9 -8 7 -9 -7 -4 -13 5 -17 4 -12 -4 3 -6 -2 -15 -11 -21 -32
-19 -5 -12 34 9 64 33 134 40 422 42 l276 2 -267 6 c-146 3 -269 7 -272 10 -3
3 34 4 82 2 101 -4 416 8 408 15 -3 3 -94 5 -203 4 -135 -1 -193 2 -183 9 11
7 4 10 -30 12 -25 1 41 5 145 8 l190 6 -218 0 c-142 -1 -206 2 -185 8 18 5 27
11 21 13 -21 8 -15 43 10 53 17 7 7 9 -40 9 -57 1 -63 -1 -63 -19 0 -19 -7
-20 -119 -20 -110 0 -119 1 -124 20 -3 11 -11 20 -17 20 -10 0 -9 -4 0 -16z
m293 -91 c-7 -2 -19 -2 -25 0 -7 3 -2 5 12 5 14 0 19 -2 13 -5z m90 -10 c-7
-2 -21 -2 -30 0 -10 3 -4 5 12 5 17 0 24 -2 18 -5z m-96 -29 c-3 -3 -12 -4
-19 -1 -8 3 -5 6 6 6 11 1 17 -2 13 -5z m-450 -106 c-3 -8 -6 -5 -6 6 -1 11 2
17 5 13 3 -3 4 -12 1 -19z m214 -15 c13 -16 12 -17 -3 -4 -17 13 -22 21 -14
21 2 0 10 -8 17 -17z m-84 -125 c-3 -8 -6 -5 -6 6 -1 11 2 17 5 13 3 -3 4 -12
1 -19z m10 -145 c-2 -16 -4 -3 -4 27 0 30 2 43 4 28 2 -16 2 -40 0 -55z m-20
-100 c-2 -16 -4 -3 -4 27 0 30 2 43 4 28 2 -16 2 -40 0 -55z"/>
<path d="M1400 1470 c0 -6 8 -14 17 -17 26 -10 53 -36 47 -45 -3 -4 1 -5 9 -2
9 3 16 -3 20 -15 3 -12 11 -21 17 -21 19 0 -32 61 -73 87 -21 13 -37 19 -37
13z"/>
<path d="M1360 1455 c0 -2 10 -10 23 -16 20 -11 21 -11 8 4 -13 16 -31 23 -31
12z"/>
<path d="M1018 1383 c7 -3 16 -2 19 1 4 3 -2 6 -13 5 -11 0 -14 -3 -6 -6z"/>
<path d="M808 1373 c7 -3 16 -2 19 1 4 3 -2 6 -13 5 -11 0 -14 -3 -6 -6z"/>
<path d="M1530 1340 c6 -11 13 -20 16 -20 2 0 0 9 -6 20 -6 11 -13 20 -16 20
-2 0 0 -9 6 -20z"/>
<path d="M1460 1340 c0 -5 5 -10 11 -10 5 0 7 5 4 10 -3 6 -8 10 -11 10 -2 0
-4 -4 -4 -10z"/>
<path d="M1108 1313 c6 -2 18 -2 25 0 6 3 1 5 -13 5 -14 0 -19 -2 -12 -5z"/>
<path d="M1160 1300 c8 -5 20 -10 25 -10 6 0 3 5 -5 10 -8 5 -19 10 -25 10 -5
0 -3 -5 5 -10z"/>
<path d="M1550 1293 c0 -4 5 -15 10 -23 8 -13 10 -13 10 2 0 9 -4 20 -10 23
-5 3 -10 3 -10 -2z"/>
<path d="M1224 1279 c-3 -5 3 -6 12 -2 12 4 15 3 10 -5 -5 -8 -1 -10 10 -5 13
5 15 3 9 -8 -5 -8 -4 -11 0 -6 5 4 10 13 11 20 2 14 -43 19 -52 6z"/>
<path d="M1280 1226 c7 -7 13 -7 20 0 6 6 3 10 -10 10 -13 0 -16 -4 -10 -10z"/>
<path d="M1329 1231 c7 -5 17 -15 22 -22 6 -10 8 -8 7 7 -1 12 -10 21 -22 22
-15 1 -17 -1 -7 -7z"/>
<path d="M1572 1210 c0 -19 2 -27 5 -17 2 9 2 25 0 35 -3 9 -5 1 -5 -18z"/>
<path d="M1305 1210 c-4 -6 -1 -9 7 -8 7 2 13 -4 13 -12 1 -18 24 -60 25 -43
0 6 -4 14 -10 18 -5 3 -7 12 -4 19 6 17 -22 41 -31 26z"/>
<path d="M673 1203 c59 -2 155 -2 215 0 59 1 10 3 -108 3 -118 0 -167 -2 -107
-3z"/>
<path d="M460 1189 c-72 -29 -125 -97 -114 -146 4 -19 3 -24 -4 -15 -6 9 -11
-9 -15 -55 -8 -82 -9 -419 -2 -411 3 3 6 73 7 156 1 83 4 149 7 146 3 -3 8
-47 12 -97 l6 -92 3 100 c1 55 5 91 7 81 3 -13 7 -15 12 -7 4 7 6 -14 5 -46
-1 -32 0 -48 2 -35 5 19 12 22 50 22 l44 0 1 -42 c1 -41 2 -41 10 14 4 31 14
72 22 90 12 29 12 35 -1 48 -14 12 -15 11 -10 -8 6 -21 -6 -40 -15 -25 -9 16
10 47 31 48 12 1 19 -3 16 -9 -3 -6 3 -1 14 12 12 12 19 33 17 47 -1 14 0 23
3 20 8 -8 42 26 43 44 0 12 3 11 8 -4 7 -15 3 -23 -15 -35 -13 -8 -26 -20 -28
-26 -2 -6 18 4 46 22 27 19 54 34 60 34 5 0 6 5 3 10 -4 7 2 9 17 7 12 -2 17
-2 9 0 -12 4 -12 6 0 13 7 5 10 12 6 17 -5 4 -12 1 -16 -6 -7 -10 -13 -10 -29
-2 -11 6 -23 11 -26 11 -10 0 -1 -25 13 -36 12 -9 11 -12 -2 -17 -12 -5 -18 2
-23 28 -7 40 -29 46 -38 13 -5 -19 -8 -21 -16 -8 -13 20 -13 30 1 30 18 0 41
28 28 36 -8 4 -7 9 2 15 11 7 10 9 -5 9 -15 0 -16 3 -7 14 10 12 7 15 -16 18
-15 2 77 3 205 3 128 0 240 3 250 6 9 4 -93 7 -226 8 -157 0 -251 -3 -264 -10
-11 -6 -31 -7 -46 -3 -27 7 -27 8 8 14 34 7 34 7 5 8 -16 0 -41 -4 -55 -9z
m-64 -83 c0 -13 -4 -22 -8 -20 -4 2 -8 -6 -10 -18 -3 -21 -4 -21 -9 4 -4 15
-3 25 1 23 4 -3 10 4 13 15 7 28 15 25 13 -4z m164 -46 c0 -11 -7 -20 -15 -20
-8 0 -15 9 -15 20 0 11 7 20 15 20 8 0 15 -9 15 -20z m7 -50 c3 -10 2 -11 -4
-4 -4 6 -15 14 -23 17 -11 5 -9 6 4 4 11 -1 21 -9 23 -17z m-210 -47 c-3 -10
-5 -2 -5 17 0 19 2 27 5 18 2 -10 2 -26 0 -35z m30 5 c-3 -7 -5 -2 -5 12 0 14
2 19 5 13 2 -7 2 -19 0 -25z m-20 -60 c-3 -7 -5 -2 -5 12 0 14 2 19 5 13 2 -7
2 -19 0 -25z m26 7 c-3 -9 -8 -14 -10 -11 -3 3 -2 9 2 15 9 16 15 13 8 -4z
m-56 -17 c-3 -8 -6 -5 -6 6 -1 11 2 17 5 13 3 -3 4 -12 1 -19z m143 -88 c0 -5
-18 -10 -40 -10 -22 0 -40 5 -40 10 0 6 18 10 40 10 22 0 40 -4 40 -10z"/>
<path d="M1078 1188 c9 -9 15 -9 24 0 9 9 7 12 -12 12 -19 0 -21 -3 -12 -12z"/>
<path d="M1126 1183 c-12 -13 -6 -24 12 -19 30 9 113 -79 97 -104 -3 -5 -1
-10 4 -10 15 0 14 16 -3 48 -22 43 -95 99 -110 85z"/>
<path d="M1070 1166 c0 -2 9 -6 20 -9 11 -3 18 -1 14 4 -5 9 -34 13 -34 5z"/>
<path d="M640 1120 c0 -22 4 -40 9 -40 5 0 16 -3 25 -6 9 -3 16 -1 16 5 0 6
-7 11 -15 11 -8 0 -15 5 -15 10 0 6 7 10 15 10 9 0 15 9 15 25 0 20 -5 25 -25
25 -22 0 -25 -4 -25 -40z"/>
<path d="M1052 1143 c16 -4 16 -6 3 -19 -8 -9 -15 -21 -15 -27 0 -9 2 -9 8 -1
4 6 18 17 31 24 19 9 21 14 10 21 -8 5 -23 8 -34 8 -17 -1 -17 -2 -3 -6z"/>
<path d="M1120 1130 c0 -5 6 -10 14 -10 21 0 46 -40 46 -72 0 -15 4 -29 9 -33
12 -7 2 66 -10 80 -21 22 -6 26 18 4 20 -18 24 -19 13 -4 -19 26 -32 35 -42
29 -4 -3 -17 0 -28 6 -13 7 -20 7 -20 0z"/>
<path d="M1350 1124 c0 -13 18 -39 24 -34 2 3 -2 14 -10 24 -8 11 -14 16 -14
10z"/>
<path d="M770 1065 l35 -13 -35 -4 c-26 -4 -21 -5 22 -6 31 -1 63 -5 72 -8 9
-3 16 -1 16 5 0 6 -13 11 -29 11 -16 0 -42 7 -57 15 -16 8 -36 15 -44 14 -8 0
1 -6 20 -14z"/>
<path d="M894 1069 c-3 -6 -1 -15 6 -19 10 -6 9 -9 -1 -13 -9 -3 -3 -10 16
-19 59 -28 93 -52 115 -85 12 -18 27 -30 32 -26 6 3 8 0 6 -8 -3 -8 1 -28 8
-45 21 -50 35 -156 23 -170 -7 -9 -7 -19 0 -33 16 -29 13 -39 -4 -17 -15 20
-15 20 -17 0 0 -10 -1 -25 -1 -31 1 -7 -3 -11 -7 -8 -5 3 -11 -3 -14 -13 -4
-11 -23 -35 -43 -56 -20 -20 -33 -36 -29 -36 4 0 14 7 23 15 8 8 20 12 26 8 6
-4 8 0 4 10 -3 10 -2 17 4 17 5 0 14 10 19 22 8 21 9 21 10 3 1 -18 2 -17 14
5 8 14 12 29 9 34 -4 5 -1 6 4 3 6 -4 14 0 17 9 10 26 7 54 -6 54 -10 0 -9 3
1 9 20 13 6 146 -19 179 -13 16 -17 30 -11 41 10 18 4 41 -10 41 -6 0 -7 -5
-3 -11 4 -7 1 -10 -7 -7 -8 2 -18 14 -24 25 -5 12 -19 26 -32 32 -13 6 -23 15
-23 21 0 5 -3 9 -7 8 -5 -1 -21 4 -38 11 -27 12 -28 14 -11 20 18 7 18 8 -5
14 -20 6 -21 9 -9 17 9 6 10 10 3 10 -6 0 -15 -5 -19 -11z"/>
<path d="M1011 1048 c6 -18 11 -37 12 -43 5 -21 18 -33 42 -37 14 -3 25 -1 25
3 0 8 -23 13 -43 10 -5 -1 -6 3 -2 8 5 9 -30 91 -40 91 -2 0 1 -15 6 -32z"/>
<path d="M848 1063 c7 -3 16 -2 19 1 4 3 -2 6 -13 5 -11 0 -14 -3 -6 -6z"/>
<path d="M930 1066 c0 -2 7 -7 16 -10 8 -3 12 -2 9 4 -6 10 -25 14 -25 6z"/>
<path d="M981 1054 c0 -11 3 -14 6 -6 3 7 2 16 -1 19 -3 4 -6 -2 -5 -13z"/>
<path d="M1372 1050 c0 -14 2 -19 5 -12 2 6 2 18 0 25 -3 6 -5 1 -5 -13z"/>
<path d="M1221 1024 c0 -11 3 -14 6 -6 3 7 2 16 -1 19 -3 4 -6 -2 -5 -13z"/>
<path d="M1244 1029 c-3 -6 -1 -16 5 -22 8 -8 11 -5 11 11 0 24 -5 28 -16 11z"/>
<path d="M1378 713 c-3 -294 -4 -310 -25 -351 -12 -24 -19 -51 -16 -59 4 -10
2 -14 -5 -10 -10 7 -57 -48 -57 -68 0 -5 -9 -9 -18 -9 -10 1 -15 -1 -12 -4 4
-4 21 -7 38 -7 38 -1 60 -7 68 -18 4 -5 6 23 5 61 0 39 -4 68 -8 65 -5 -2 -8
1 -8 6 0 6 5 11 10 11 6 0 10 9 10 21 0 14 5 19 14 16 11 -4 14 3 14 26 0 18
0 165 1 327 0 162 -2 296 -4 298 -2 2 -5 -135 -7 -305z m-54 -464 c-9 -10 -23
-19 -30 -19 -8 0 -5 9 9 23 26 28 46 24 21 -4z m23 -35 c-9 -9 -28 6 -21 18 4
6 10 6 17 -1 6 -6 8 -13 4 -17z"/>
<path d="M1160 995 c-8 -9 -8 -15 -2 -15 12 0 26 19 19 26 -2 2 -10 -2 -17
-11z"/>
<path d="M1120 971 c0 -5 7 -12 16 -15 24 -9 27 -7 10 9 -17 17 -26 19 -26 6z"/>
<path d="M1048 953 c7 -3 16 -2 19 1 4 3 -2 6 -13 5 -11 0 -14 -3 -6 -6z"/>
<path d="M1096 935 c4 -8 8 -15 10 -15 2 0 4 7 4 15 0 8 -4 15 -10 15 -5 0 -7
-7 -4 -15z"/>
<path d="M1258 753 c-2 -109 -1 -207 3 -218 4 -11 8 78 8 198 1 119 -1 217 -3
217 -2 0 -6 -89 -8 -197z"/>
<path d="M1140 936 c0 -2 7 -7 16 -10 8 -3 12 -2 9 4 -6 10 -25 14 -25 6z"/>
<path d="M747 923 c-17 -3 -25 -9 -21 -15 5 -7 2 -9 -7 -6 -8 3 -30 -7 -49
-24 -19 -16 -28 -26 -20 -22 8 4 5 -3 -7 -14 -28 -28 -36 -54 -23 -83 l10 -24
-4 25 c-3 14 -1 32 4 40 8 12 10 11 8 -5 -4 -52 3 -85 17 -85 8 0 15 7 15 15
0 8 5 15 11 15 6 0 17 7 25 15 17 17 49 21 39 5 -6 -9 -2 -12 28 -14 6 -1 17
-7 23 -14 5 -8 27 -14 47 -14 28 0 37 -4 37 -17 0 -9 -10 -22 -22 -27 -13 -6
-18 -9 -11 -8 6 2 14 -4 17 -12 3 -8 13 -14 22 -12 11 2 18 -5 19 -19 1 -17
-2 -20 -11 -13 -8 7 -13 6 -17 -4 -9 -22 5 -26 33 -10 14 7 20 13 13 14 -6 0
-9 9 -6 20 3 11 9 17 14 14 5 -3 7 -11 3 -17 -3 -7 4 -1 15 11 27 31 46 99 32
116 -6 7 -8 16 -5 19 9 9 -16 67 -29 67 -6 0 -8 3 -4 6 8 9 -19 34 -59 56 -37
19 -94 28 -137 21z m101 -24 c2 -5 12 -9 22 -9 10 0 22 -5 25 -10 4 -6 12 -7
18 -3 7 4 6 -1 -2 -10 -12 -15 -12 -17 0 -12 23 8 60 -58 53 -95 -4 -20 -3
-30 5 -30 7 0 9 -5 5 -11 -4 -7 -9 -8 -13 -1 -3 5 -15 11 -26 13 -11 3 -20 9
-20 14 0 22 -17 37 -28 26 -16 -16 -40 -14 -33 4 4 10 -1 15 -16 15 -17 0 -18
2 -8 15 14 17 16 17 -115 17 -44 0 -61 2 -37 5 23 2 42 8 42 12 0 5 -11 6 -24
4 -18 -4 -24 -1 -22 10 3 22 27 48 38 41 5 -3 4 -12 -3 -20 -6 -7 -16 -11 -22
-7 -6 3 -7 1 -3 -5 3 -6 14 -11 24 -12 9 0 36 -2 59 -4 23 -1 40 1 38 5 -3 4
2 12 10 19 13 10 15 9 15 -9 0 -11 5 -21 10 -21 6 0 10 5 10 10 0 6 12 10 26
10 15 0 23 4 18 11 -3 6 -17 8 -33 4 -14 -4 -23 -3 -19 1 11 10 -30 37 -44 28
-7 -4 -8 -3 -4 5 8 13 48 5 54 -10z m102 -232 c0 -4 0 -13 0 -19 0 -7 -5 -5
-11 6 -9 15 -13 16 -20 5 -8 -12 -11 -12 -19 1 -8 12 -10 13 -10 1 0 -8 -3
-12 -6 -8 -3 3 -3 10 0 15 6 11 66 10 66 -1z"/>
<path d="M875 840 c4 -6 10 -8 15 -5 5 3 11 1 15 -5 4 -6 11 -7 18 -3 7 4 4 9
-9 14 -28 11 -46 11 -39 -1z"/>
<path d="M900 801 c0 -6 7 -11 15 -11 8 0 15 -7 15 -15 0 -22 17 -18 23 5 3
13 0 20 -8 20 -7 0 -20 3 -29 6 -9 3 -16 1 -16 -5z"/>
<path d="M1093 894 c-7 -20 12 -41 22 -23 6 8 4 10 -5 4 -9 -5 -10 -2 -5 14 7
24 -3 29 -12 5z"/>
<path d="M1423 830 c0 -41 2 -58 4 -37 2 20 2 54 0 75 -2 20 -4 3 -4 -38z"/>
<path d="M1244 720 c0 -69 1 -97 3 -62 2 34 2 90 0 125 -2 34 -3 6 -3 -63z"/>
<path d="M1214 705 c0 -60 1 -84 3 -52 2 32 2 81 0 110 -2 29 -3 3 -3 -58z"/>
<path d="M381 724 c0 -11 3 -14 6 -6 3 7 2 16 -1 19 -3 4 -6 -2 -5 -13z"/>
<path d="M610 711 c0 -34 45 -102 67 -101 4 1 -2 9 -14 19 -12 10 -26 37 -33
59 -11 45 -20 54 -20 23z"/>
<path d="M157 700 c3 -11 7 -20 9 -20 2 0 4 9 4 20 0 11 -4 20 -9 20 -5 0 -7
-9 -4 -20z"/>
<path d="M483 665 c-3 -9 -3 -18 -1 -21 3 -3 8 4 11 16 6 23 -1 27 -10 5z"/>
<path d="M660 665 c7 -9 15 -13 17 -11 7 7 -7 26 -19 26 -6 0 -6 -6 2 -15z"/>
<path d="M712 660 c0 -14 2 -19 5 -12 2 6 2 18 0 25 -3 6 -5 1 -5 -13z"/>
<path d="M687 606 c-4 -11 -1 -13 10 -9 11 4 14 2 9 -5 -5 -8 0 -12 13 -12
l21 0 -20 20 c-24 24 -26 24 -33 6z"/>
<path d="M510 603 c0 -6 9 -21 21 -34 l20 -24 -17 30 c-24 39 -24 40 -24 28z"/>
<path d="M1094 565 c-8 -20 -12 -41 -8 -47 4 -6 8 -24 9 -39 2 -21 -1 -26 -14
-22 -14 4 -14 3 -1 -6 29 -21 37 -12 37 40 0 56 23 93 45 71 8 -8 8 -15 1 -24
-12 -15 -11 -54 2 -65 4 -5 5 -2 0 6 -5 10 -4 12 4 7 6 -4 9 -12 6 -17 -4 -5
-3 -15 2 -21 14 -23 15 -61 2 -52 -8 4 -9 3 -5 -5 11 -17 29 -2 23 20 -8 29 8
23 22 -8 11 -25 14 -26 22 -10 6 10 7 27 4 38 -5 15 -4 19 4 15 15 -10 13 27
-4 94 l-15 55 5 -60 c3 -35 0 -66 -6 -75 -8 -11 -9 -6 -4 23 6 40 0 47 -22 20
-13 -16 -13 -16 -4 4 13 26 15 85 3 65 -7 -9 -13 -8 -27 8 -29 32 -63 26 -81
-15z m14 -30 c-1 -13 -6 -21 -10 -17 -5 5 -6 16 -2 25 9 24 14 21 12 -8z m132
-128 c0 -5 -4 -5 -10 -2 -5 3 -10 14 -10 23 0 15 2 15 10 2 5 -8 10 -19 10
-23z"/>
<path d="M1402 580 c0 -14 2 -19 5 -12 2 6 2 18 0 25 -3 6 -5 1 -5 -13z"/>
<path d="M798 583 c6 -2 18 -2 25 0 6 3 1 5 -13 5 -14 0 -19 -2 -12 -5z"/>
<path d="M835 570 c-3 -5 -2 -10 4 -10 5 0 13 5 16 10 3 6 2 10 -4 10 -5 0
-13 -4 -16 -10z"/>
<path d="M748 563 c6 -2 18 -2 25 0 6 3 1 5 -13 5 -14 0 -19 -2 -12 -5z"/>
<path d="M1056 541 c-4 -7 -5 -15 -2 -18 9 -9 19 4 14 18 -4 11 -6 11 -12 0z"/>
<path d="M560 531 c0 -10 19 -25 25 -20 1 2 -3 10 -11 17 -8 7 -14 8 -14 3z"/>
<path d="M1411 504 c0 -11 3 -14 6 -6 3 7 2 16 -1 19 -3 4 -6 -2 -5 -13z"/>
<path d="M1010 496 c0 -2 7 -9 15 -16 13 -11 14 -10 9 4 -5 14 -24 23 -24 12z"/>
<path d="M638 473 c6 -2 10 -9 7 -14 -4 -5 1 -6 10 -2 13 5 14 7 3 14 -7 5
-17 8 -23 8 -5 0 -4 -3 3 -6z"/>
<path d="M980 469 c0 -7 -11 -9 -26 -6 -15 3 -41 -1 -58 -9 l-31 -14 45 4 c25
2 59 7 75 11 21 5 26 4 16 -3 -11 -8 -8 -10 12 -9 24 2 24 3 10 20 -18 19 -43
23 -43 6z"/>
<path d="M1422 450 c0 -19 2 -27 5 -17 2 9 2 25 0 35 -3 9 -5 1 -5 -18z"/>
<path d="M763 433 c15 -2 39 -2 55 0 15 2 2 4 -28 4 -30 0 -43 -2 -27 -4z"/>
<path d="M1400 414 c0 -16 5 -36 11 -44 7 -11 8 -4 3 25 -8 50 -14 58 -14 19z"/>
<path d="M346 407 c3 -10 9 -15 12 -12 3 3 0 11 -7 18 -10 9 -11 8 -5 -6z"/>
<path d="M1200 365 c-7 -8 -22 -13 -33 -12 -14 1 -21 -3 -19 -12 2 -9 -3 -11
-13 -7 -10 3 -14 2 -10 -5 4 -6 13 -8 20 -5 8 3 16 0 18 -7 2 -7 8 -9 12 -4 5
4 0 14 -11 22 -22 16 -12 20 15 5 14 -7 23 -5 35 9 10 11 13 22 8 25 -5 3 -15
-1 -22 -9z"/>
<path d="M1531 344 c0 -11 3 -14 6 -6 3 7 2 16 -1 19 -3 4 -6 -2 -5 -13z"/>
<path d="M1548 328 c0 -18 0 -44 0 -58 2 -24 1 -24 -12 5 -19 39 -19 31 -1
-27 12 -43 12 -49 -2 -56 -11 -6 -12 -11 -4 -16 6 -4 11 -1 11 6 0 10 3 9 11
-2 9 -13 10 -12 5 3 -3 9 -1 17 4 17 6 0 10 7 10 16 0 8 -4 13 -9 10 -4 -3 -6
26 -3 64 2 39 2 70 -2 70 -3 0 -7 -15 -8 -32z"/>
<path d="M1573 290 c0 -30 2 -43 4 -27 2 15 2 39 0 55 -2 15 -4 2 -4 -28z"/>
<path d="M848 273 c29 -2 74 -2 100 0 26 2 2 3 -53 3 -55 0 -76 -1 -47 -3z"/>
<path d="M1196 196 c-22 -10 -25 -14 -12 -19 9 -4 16 -2 16 3 0 6 7 10 15 10
8 0 15 5 15 10 0 6 -1 10 -2 9 -2 0 -16 -6 -32 -13z"/>
<path d="M1370 160 c0 -22 5 -40 10 -40 6 0 10 -18 10 -40 0 -30 4 -40 16 -40
14 0 16 8 10 46 -3 26 -6 62 -6 80 0 27 -4 34 -20 34 -17 0 -20 -7 -20 -40z"/>
<path d="M1138 173 c-10 -2 -18 -8 -18 -13 0 -4 9 -6 20 -3 11 3 20 9 20 14 0
5 -1 8 -2 8 -2 -1 -11 -3 -20 -6z"/>
<path d="M1260 170 c0 -5 5 -10 10 -10 6 0 10 5 10 10 0 6 -4 10 -10 10 -5 0
-10 -4 -10 -10z"/>
<path d="M1335 165 c4 -11 8 -32 10 -48 3 -41 15 -46 15 -6 0 20 -7 44 -16 55
-15 19 -16 19 -9 -1z"/>
<path d="M1532 151 c-7 -4 -12 -14 -10 -21 2 -10 -9 -14 -37 -15 -39 -1 -40
-2 -40 -34 0 -23 -7 -38 -20 -45 -21 -12 -36 -28 -30 -34 2 -2 21 8 43 21 39
25 93 86 105 120 7 19 7 20 -11 8z m-54 -56 c4 6 14 11 22 13 10 2 6 -6 -10
-25 -14 -15 -27 -31 -30 -35 -3 -4 -6 8 -7 28 0 25 2 32 8 23 6 -9 12 -10 17
-4z"/>
<path d="M1332 44 c-8 -9 -10 -20 -4 -30 8 -14 10 -12 16 11 8 33 5 38 -12 19z"/>
<path d="M1367 20 c-3 -11 -1 -20 4 -20 5 0 9 2 9 4 0 2 3 11 6 20 3 9 2 16
-4 16 -5 0 -12 -9 -15 -20z"/>
</g>
</svg>
