<svg version="1.1" id="Layer_1" xmlns="http://www.w3.org/2000/svg" xmlns:xlink="http://www.w3.org/1999/xlink" x="0px" y="0px"
	 width="100%" viewBox="0 0 180 148" enable-background="new 0 0 180 148" xml:space="preserve">
<path fill="#FDFEFF" opacity="1.000000" stroke="none" 
	d="
M1.000000,63.000000 
	C1.000000,42.000004 1.000000,21.500008 1.000000,1.000008 
	C60.999985,1.000005 120.999969,1.000005 180.999969,1.000003 
	C180.999969,50.333309 180.999969,99.666618 180.999985,148.999939 
	C121.000031,148.999969 61.000069,148.999969 1.000051,148.999985 
	C1.000000,120.500000 1.000000,92.000000 1.000000,63.000000 
M172.045410,7.479434 
	C167.048050,9.216469 162.047516,10.944509 157.054489,12.693892 
	C154.029556,13.753723 151.669022,13.473785 149.034454,11.004715 
	C139.608887,2.171285 127.840393,0.882309 116.104507,3.630841 
	C102.444160,6.830081 93.466599,16.102598 90.101189,29.867340 
	C88.792511,35.219929 89.035225,40.951824 88.518661,47.141041 
	C58.673656,44.887218 34.028728,32.143082 14.092555,9.080832 
	C9.510470,17.760113 8.103124,26.323706 10.217435,35.503345 
	C12.292698,44.513451 17.450245,51.521496 23.903019,58.236698 
	C19.043661,56.868084 14.184302,55.499466 9.314283,54.127850 
	C8.166991,68.412926 16.421841,79.184700 37.183468,90.011513 
	C32.052723,90.695801 27.663097,91.281250 22.673689,91.946686 
	C24.773071,98.740395 28.932966,104.568497 35.092365,108.241158 
	C41.041790,111.788620 47.796314,113.985847 55.295349,117.254929 
	C47.650452,120.818565 40.308350,125.002602 32.453678,127.686653 
	C24.716085,130.330704 16.459137,131.454926 8.343864,133.265213 
	C9.237919,134.185364 9.953053,135.075516 10.825296,135.767685 
	C11.461039,136.272171 12.299600,136.525009 13.055161,136.873978 
	C31.460083,145.374649 50.658020,148.402588 70.886726,146.267410 
	C127.994232,140.239517 161.940582,90.174599 161.949478,43.628887 
	C161.950226,39.752155 163.166824,37.362675 166.078461,34.878502 
	C170.604065,31.017303 174.533112,26.456888 178.715027,22.192856 
	C178.379852,21.817511 178.044693,21.442167 177.709518,21.066824 
	C172.325302,22.304300 166.941071,23.541777 162.419113,24.581074 
	C166.234833,19.111811 169.941193,13.799298 173.916412,8.056789 
	C173.849609,7.818420 173.782806,7.580052 173.716003,7.341680 
	C173.410828,7.491746 173.105652,7.641812 172.045410,7.479434 
z"/>
<path fill="#1E9BF0" opacity="1.000000" stroke="none" 
	d="
M173.647552,8.486787 
	C169.941193,13.799298 166.234833,19.111811 162.419113,24.581074 
	C166.941071,23.541777 172.325302,22.304300 177.709518,21.066824 
	C178.044693,21.442167 178.379852,21.817511 178.715027,22.192856 
	C174.533112,26.456888 170.604065,31.017303 166.078461,34.878502 
	C163.166824,37.362675 161.950226,39.752155 161.949478,43.628887 
	C161.940582,90.174599 127.994232,140.239517 70.886726,146.267410 
	C50.658020,148.402588 31.460083,145.374649 13.055161,136.873978 
	C12.299600,136.525009 11.461039,136.272171 10.825296,135.767685 
	C9.953053,135.075516 9.237919,134.185364 8.343864,133.265213 
	C16.459137,131.454926 24.716085,130.330704 32.453678,127.686653 
	C40.308350,125.002602 47.650452,120.818565 55.295349,117.254929 
	C47.796314,113.985847 41.041790,111.788620 35.092365,108.241158 
	C28.932966,104.568497 24.773071,98.740395 22.673689,91.946686 
	C27.663097,91.281250 32.052723,90.695801 37.183468,90.011513 
	C16.421841,79.184700 8.166991,68.412926 9.314283,54.127850 
	C14.184302,55.499466 19.043661,56.868084 23.903019,58.236698 
	C17.450245,51.521496 12.292698,44.513451 10.217435,35.503345 
	C8.103124,26.323706 9.510470,17.760113 14.092555,9.080832 
	C34.028728,32.143082 58.673656,44.887218 88.518661,47.141041 
	C89.035225,40.951824 88.792511,35.219929 90.101189,29.867340 
	C93.466599,16.102598 102.444160,6.830081 116.104507,3.630841 
	C127.840393,0.882309 139.608887,2.171285 149.034454,11.004715 
	C151.669022,13.473785 154.029556,13.753723 157.054489,12.693892 
	C162.047516,10.944509 167.048050,9.216469 172.623047,7.823610 
	C173.349640,8.274121 173.498596,8.380455 173.647552,8.486787 
z"/>
<path fill="#1E9BF0" opacity="1.000000" stroke="none" 
	d="
M173.000580,7.979833 
	C173.105652,7.641812 173.410828,7.491746 173.716003,7.341681 
	C173.782806,7.580052 173.849609,7.818420 173.781982,8.271789 
	C173.498596,8.380455 173.349640,8.274121 173.000580,7.979833 
z"/>
</svg>